<svg xmlns="http://www.w3.org/2000/svg" viewBox="0 0 512 512">
<rect width="512" height="512" fill="#0a0a12"/>
<rect x="216" y="108" width="96" height="12" fill="#ff00e5"/>
<rect x="240" y="120" width="48" height="12" fill="#ff00e5" opacity="0.7"/>
<rect x="216" y="132" width="96" height="24" fill="#00ffd5"/>
<rect x="168" y="156" width="192" height="24" fill="#00ffd5"/>
<rect x="144" y="180" width="240" height="24" fill="#00ffd5"/>
<rect x="144" y="204" width="240" height="24" fill="#00ffd5"/>
<rect x="144" y="228" width="48" height="24" fill="#00ffd5"/>
<rect x="336" y="228" width="48" height="24" fill="#00ffd5"/>
<rect x="144" y="252" width="48" height="24" fill="#00ffd5"/>
<rect x="336" y="252" width="48" height="24" fill="#00ffd5"/>
<rect x="144" y="276" width="240" height="24" fill="#00ffd5"/>
<rect x="168" y="300" width="192" height="24" fill="#00ffd5"/>
<rect x="168" y="324" width="48" height="24" fill="#00ffd5"/>
<rect x="312" y="324" width="48" height="24" fill="#00ffd5"/>
<rect x="168" y="348" width="48" height="24" fill="#00ffd5"/>
<rect x="312" y="348" width="48" height="24" fill="#00ffd5"/>
<rect x="264" y="216" width="24" height="36" fill="#ffd700" opacity="0.9"/>
<rect x="264" y="276" width="24" height="12" fill="#ffd700" opacity="0.6"/>
<path d="M144 372 L216 372 L216 396 L144 396 Z" fill="none" stroke="#ff00e5" stroke-width="4" opacity="0.8"/>
<path d="M312 84 L384 84" stroke="#fff" stroke-width="4" stroke-linecap="round" opacity="0.5"/>
</svg>
