<svg xmlns="http://www.w3.org/2000/svg" viewBox="0 0 512 512">
<rect width="512" height="512" fill="#0a0a12"/>
<path d="M258 134 c-58 1 -86 42 -84 98 l3 58 c3 55 37 88 81 88 44 0 79 -33 82 -89 l3 -57 c2 -57 -27 -99 -85 -98 z" fill="none" stroke="#00ffd5" stroke-width="9" stroke-linecap="round"/>
<path d="M256 138 c3 24 2 47 -1 71" fill="none" stroke="#00ffd5" stroke-width="8" stroke-linecap="round"/>
<path d="M254 192 c-11 0 -17 9 -17 22 0 14 7 22 17 22 11 0 18 -8 18 -22 0 -13 -7 -22 -18 -22 z" fill="none" stroke="#ffd700" stroke-width="7" stroke-linecap="round"/>
<path d="M259 132 c-3 -34 15 -51 -2 -84" fill="none" stroke="#ff00e5" stroke-width="8" stroke-linecap="round"/>
<path d="M174 246 c-13 2 -21 1 -30 -2" fill="none" stroke="#ff00e5" stroke-width="8" stroke-linecap="round"/>
<path d="M172 286 c-12 3 -20 2 -30 -1" fill="none" stroke="#ff00e5" stroke-width="8" stroke-linecap="round"/>
<path d="M228 372 c20 8 41 8 61 1" fill="none" stroke="#fff" stroke-width="6" stroke-linecap="round" opacity="0.8"/>
</svg>
